<svg xmlns="http://www.w3.org/2000/svg" xmlns:xlink="http://www.w3.org/1999/xlink" version="1.1" x="0px" y="0px" viewBox="0 0 100 125" style="enable-background:new 0 0 100 100;" xml:space="preserve"><path d="M34.4370117,64.8291016c0,0.5522461,0.4477539,1,1,1s1-0.4477539,1-1V61.887207h2.9775391c0.5522461,0,1-0.4477539,1-1  s-0.4477539-1-1-1h-2.9775391v-2.9414062c0-0.5522461-0.4477539-1-1-1s-1,0.4477539-1,1v2.9414062h-2.9770508  c-0.5522461,0-1,0.4477539-1,1s0.4477539,1,1,1h2.9770508V64.8291016z"/><path d="M57.0922852,47.1762695h2.9775391v2.9418945c0,0.5522461,0.4477539,1,1,1s1-0.4477539,1-1v-2.9418945h2.9770508  c0.5522461,0,1-0.4477539,1-1s-0.4477539-1-1-1h-2.9770508v-2.9414062c0-0.5522461-0.4477539-1-1-1s-1,0.4477539-1,1v2.9414062  h-2.9775391c-0.5522461,0-1,0.4477539-1,1S56.5400391,47.1762695,57.0922852,47.1762695z"/><path d="M39.578125,50.6000977c0.3364258,0.1757812,0.7451172,0.1455078,1.0522461-0.078125  c0.3076172-0.2241211,0.4614258-0.6030273,0.3964844-0.9780273l-1.1791992-6.8413086l4.9980469-4.8466797  c0.2734375-0.2651367,0.3725586-0.6630859,0.2548828-1.0258789c-0.1171875-0.362793-0.4306641-0.6269531-0.8081055-0.6816406  l-6.9116211-0.9985352l-3.0898438-6.2280273c-0.3378906-0.6806641-1.4541016-0.6806641-1.7919922,0l-3.0898438,6.2280273  l-6.9116211,0.9985352c-0.3774414,0.0546875-0.690918,0.3188477-0.8081055,0.6816406  c-0.1176758,0.362793-0.0185547,0.7607422,0.2548828,1.0258789l4.9985352,4.8466797l-1.1796875,6.8413086  c-0.0649414,0.375,0.0888672,0.7539062,0.3964844,0.9780273c0.1743164,0.1269531,0.3808594,0.1918945,0.5888672,0.1918945  c0.1586914,0,0.3173828-0.0375977,0.4633789-0.1137695l6.1831055-3.2333984L39.578125,50.6000977z M28.0776367,47.8901367  l0.9257812-5.3681641c0.0561523-0.3256836-0.0522461-0.6577148-0.2890625-0.8876953l-3.9165039-3.7973633l5.4169922-0.7827148  c0.3251953-0.046875,0.6064453-0.2509766,0.7529297-0.5454102l2.4272461-4.8925781l2.4272461,4.8925781  C35.96875,36.8032227,36.25,37.0073242,36.5751953,37.0541992l5.4169922,0.7827148l-3.9160156,3.7973633  c-0.2368164,0.2299805-0.3452148,0.5620117-0.2890625,0.8876953l0.925293,5.3686523l-4.8540039-2.5385742  c-0.1450195-0.0756836-0.3041992-0.1137695-0.4633789-0.1137695s-0.3183594,0.0380859-0.4633789,0.1137695L28.0776367,47.8901367z"/><path d="M61.8442383,30.2905273l-0.9628906,5.5839844c-0.0649414,0.375,0.0888672,0.7539062,0.3964844,0.9780273  c0.1743164,0.1269531,0.3808594,0.1918945,0.5888672,0.1918945c0.1586914,0,0.3178711-0.0375977,0.4633789-0.1137695  l5.0478516-2.6401367l5.0478516,2.6401367c0.3374023,0.1757812,0.7441406,0.1455078,1.0522461-0.078125  c0.3076172-0.2241211,0.4614258-0.6030273,0.3964844-0.9780273l-0.9624023-5.5839844l4.0795898-3.9560547  c0.2734375-0.2651367,0.3725586-0.6630859,0.2548828-1.0258789c-0.1171875-0.362793-0.4306641-0.6269531-0.8081055-0.6816406  l-5.6420898-0.8154297l-2.5224609-5.0834961c-0.3378906-0.6806641-1.4541016-0.6806641-1.7919922,0l-2.5219727,5.0834961  l-5.6420898,0.8154297c-0.3774414,0.0546875-0.690918,0.3188477-0.8081055,0.6816406  c-0.1176758,0.362793-0.0185547,0.7607422,0.2548828,1.0258789L61.8442383,30.2905273z M64.765625,25.7158203  c0.3251953-0.046875,0.6064453-0.2509766,0.7529297-0.5454102l1.859375-3.7480469l1.8598633,3.7480469  c0.1464844,0.2944336,0.4277344,0.4985352,0.7529297,0.5454102l4.1479492,0.5996094L71.140625,29.222168  c-0.2368164,0.2299805-0.3452148,0.5620117-0.2890625,0.8876953l0.7084961,4.1108398l-3.71875-1.9448242  c-0.1450195-0.0756836-0.3041992-0.1137695-0.4633789-0.1137695s-0.3183594,0.0380859-0.4633789,0.1137695l-3.71875,1.9448242  l0.7089844-4.1108398c0.0561523-0.3256836-0.0522461-0.6577148-0.2890625-0.8876953l-2.9980469-2.9067383L64.765625,25.7158203z"/><path d="M75.5786133,58.1533203l-4.8764648-0.7045898l-2.1801758-4.3935547c-0.3378906-0.6806641-1.4541016-0.6806641-1.7919922,0  l-2.1796875,4.3935547l-4.8764648,0.7045898c-0.3774414,0.0546875-0.690918,0.3188477-0.8081055,0.6816406  c-0.1176758,0.362793-0.0185547,0.7607422,0.2548828,1.0258789l3.5258789,3.4189453l-0.8320312,4.8256836  c-0.0649414,0.375,0.0888672,0.7539062,0.3964844,0.9780273c0.3071289,0.2236328,0.7158203,0.2539062,1.0522461,0.078125  l4.362793-2.2817383l4.3632812,2.2817383c0.1459961,0.0761719,0.3046875,0.1137695,0.4633789,0.1137695  c0.2075195,0,0.4145508-0.0649414,0.5888672-0.1918945c0.3076172-0.2241211,0.4614258-0.6030273,0.3964844-0.9780273  l-0.8320312-4.8256836l3.5258789-3.4189453c0.2734375-0.2651367,0.3725586-0.6630859,0.2548828-1.0258789  C76.2695312,58.472168,75.9560547,58.2080078,75.5786133,58.1533203z M70.8344727,62.2114258  c-0.2368164,0.2299805-0.3452148,0.5620117-0.2890625,0.8876953l0.578125,3.3525391l-3.0341797-1.5864258  c-0.1450195-0.0756836-0.3041992-0.1137695-0.4633789-0.1137695s-0.3183594,0.0380859-0.4633789,0.1137695l-3.0336914,1.5864258  l0.578125-3.3525391c0.0561523-0.3256836-0.0522461-0.6577148-0.2890625-0.8876953l-2.4438477-2.3696289l3.3818359-0.4887695  c0.3251953-0.046875,0.6064453-0.2509766,0.7529297-0.5454102l1.5170898-3.0581055l1.5175781,3.0581055  c0.1464844,0.2944336,0.4277344,0.4985352,0.7529297,0.5454102l3.3818359,0.4887695L70.8344727,62.2114258z"/><path d="M89,15.7617188h-4.8139648v-0.6513672c0-0.3847656-0.2211914-0.7358398-0.5683594-0.9018555  c-19.09375-9.1420898-30.6538086-0.8041992-33.6083984,1.8120117c-1.215332-1.1010742-3.9238281-3.2114258-8.105957-4.6225586  c-5.2583008-1.7744141-13.9555664-2.7265625-25.5209961,2.8105469c-0.347168,0.1660156-0.5683594,0.5170898-0.5683594,0.9018555  v0.6513672H11c-0.5522461,0-1,0.4477539-1,1v69.125c0,0.5522461,0.4477539,1,1,1h33.7797852  C45.8618164,88.7978516,47.8930664,90,50.125,90s4.2631836-1.2021484,5.3452148-3.1132812H89c0.5522461,0,1-0.4477539,1-1v-69.125  C90,16.2094727,89.5522461,15.7617188,89,15.7617188z M82.1860352,15.7446289v62.4125977  c-16.585083-7.3337402-27.229187-1.3961182-31.1896973,1.6586304c-0.0351562-21.3511353-0.0765381-58.0256958-0.0098877-61.9893799  C52.7010498,16.1133423,63.1569824,6.913147,82.1860352,15.7446289z M17.8139648,15.7446289  c18.9717407-8.805542,29.4205322,0.3122559,31.1813354,2.0635376c-0.0820923,5.0390625-0.0305176,42.9298706,0.0009155,61.9746704  c-1.4580688-1.142334-3.8164062-2.6708984-7.0928955-3.7764893c-2.2768555-0.7685547-5.1982422-1.3828125-8.7182617-1.3828125  c-4.2705078,0-9.421875,0.9042969-15.3710938,3.5341797V15.7446289z M88,84.8867188H54.8515625  c-0.3999023,0-0.7612305,0.2382812-0.9189453,0.6054688C53.2783203,87.015625,51.7836914,88,50.125,88  s-3.1533203-0.984375-3.8076172-2.5078125c-0.1577148-0.3671875-0.519043-0.6054688-0.9189453-0.6054688H12v-67.125h3.8139648  V79.71875c0,0.34375,0.1762695,0.6630859,0.4667969,0.8461914c0.2915039,0.1826172,0.6557617,0.2036133,0.9648438,0.0556641  c20.8183594-9.9667969,31.5625,1.5703125,32.0087891,2.0639648c0.0060425,0.0067749,0.0153198,0.0091553,0.0215454,0.0157471  c0.0701904,0.074585,0.1559448,0.1295166,0.2460327,0.1797485c0.0274658,0.0151978,0.048645,0.0395508,0.0773926,0.052124  C49.7224121,82.9862671,49.8569336,83.0185547,50,83.0185547c0.0004883,0,0.0009766,0,0.0019531,0  c0.1425781-0.0002441,0.2768555-0.0323486,0.3994751-0.0863037c0.0235596-0.0103149,0.0407104-0.0307617,0.0634155-0.0429077  c0.0956421-0.0513306,0.1855469-0.1099854,0.2593384-0.1883545c0.0057373-0.0061035,0.0143433-0.0082397,0.0199585-0.0144653  c0.4472656-0.4951172,11.1914062-12.0317383,32.0102539-2.065918c0.3081055,0.1489258,0.6733398,0.1269531,0.9648438-0.0556641  c0.2905273-0.1831055,0.4667969-0.5024414,0.4667969-0.8461914V17.7617188H88V84.8867188z"/><text x="0" y="115" fill="#000000" font-size="5px" font-weight="bold" font-family="'Helvetica Neue', Helvetica, Arial-Unicode, Arial, Sans-serif">Created by Made x Made</text><text x="0" y="120" fill="#000000" font-size="5px" font-weight="bold" font-family="'Helvetica Neue', Helvetica, Arial-Unicode, Arial, Sans-serif">from the Noun Project</text></svg>